#Comment line ignore any data following # character 
#Hierarchical Translation and Rotation (.htr) file 
[Header]	
#Header keywords are followed by a single value 
FileType HTR		#Single word string
DataType HTRS		#Translation followed by rotation and scale data
FileVersion 1		#integer
NumSegments 84		#integer
NumFrames 2		#integer
DataFrameRate 30		#integer, data frame rate in this file
EulerRotationOrder ZYX
CalibrationUnits mm
RotationUnits Degrees
GlobalAxisofGravity Y
BoneLengthAxis Y
ScaleFactor 1.00
[SegmentNames&Hierarchy]
#CHILD	PARENT
MASTER GLOBAL
root MASTER
chest root
L_mid_tent01 root
R_mid_tent01 root
spine01 root
Bip01_Neck chest
L_humerus chest
R_humerus chest
weapon_bone chest
Bip01_Head Bip01_Neck
eye_left_bone Bip01_Head
eye_right_bone Bip01_Head
L_forearm L_humerus
L_front_hand L_forearm
L_weapon_bone L_forearm
L_front_hand01_01 L_front_hand
L_front_hand02_01 L_front_hand
L_front_hand03_01 L_front_hand
L_front_hand01_02 L_front_hand01_01
L_front_hand02_02 L_front_hand02_01
L_front_hand03_02 L_front_hand03_01
R_forearm R_humerus
R_front_hand R_forearm
R_weapon_bone R_forearm
R_front_hand01_01 R_front_hand
R_front_hand02_01 R_front_hand
R_front_hand03_01 R_front_hand
R_front_hand01_02 R_front_hand01_01
R_front_hand02_02 R_front_hand02_01
R_front_hand03_02 R_front_hand03_01
null_rope01_connect L_mid_tent01
Rope1_Seg01 null_rope01_connect
Rope1_Seg02 Rope1_Seg01
Rope1_Seg03 Rope1_Seg02
Rope1_Seg04 Rope1_Seg03
Rope1_Seg05 Rope1_Seg04
Rope1_Seg06 Rope1_Seg05
Rope1_Seg07 Rope1_Seg06
Rope1_Seg09 Rope1_Seg07
L_mid_hand01 Rope1_Seg09
L_mid_hand02 Rope1_Seg09
L_mid_hand03 Rope1_Seg09
null_rope02_connect R_mid_tent01
Rope2_Seg01 null_rope02_connect
Rope2_Seg02 Rope2_Seg01
Rope2_Seg03 Rope2_Seg02
Rope2_Seg04 Rope2_Seg03
Rope2_Seg05 Rope2_Seg04
Rope2_Seg06 Rope2_Seg05
Rope2_Seg07 Rope2_Seg06
Rope2_Seg09 Rope2_Seg07
R_mid_hand01 Rope2_Seg09
R_mid_hand02 Rope2_Seg09
R_mid_hand03 Rope2_Seg09
spine02 spine01
spine03 spine02
pelvis spine03
null_rope03_connect pelvis
null_rope04_connect pelvis
Rope3_Seg01 null_rope03_connect
Rope3_Seg02 Rope3_Seg01
Rope3_Seg03 Rope3_Seg02
Rope3_Seg04 Rope3_Seg03
Rope3_Seg05 Rope3_Seg04
Rope3_Seg06 Rope3_Seg05
Rope3_Seg07 Rope3_Seg06
Rope3_Seg08 Rope3_Seg07
Rope3_Seg09 Rope3_Seg08
R_rear_hand01 Rope3_Seg09
R_rear_hand02 Rope3_Seg09
R_rear_hand03 Rope3_Seg09
Rope4_Seg01 null_rope04_connect
Rope4_Seg02 Rope4_Seg01
Rope4_Seg03 Rope4_Seg02
Rope4_Seg04 Rope4_Seg03
Rope4_Seg05 Rope4_Seg04
Rope4_Seg06 Rope4_Seg05
Rope4_Seg07 Rope4_Seg06
Rope4_Seg08 Rope4_Seg07
Rope4_Seg09 Rope4_Seg08
L_rear_hand01 Rope4_Seg09
L_rear_hand02 Rope4_Seg09
L_rear_hand03 Rope4_Seg09
[BasePosition]
#SegmentName Tx, Ty, Tz, Rx, Ry, Rz, BoneLength
MASTER 0.000000 0.000000 0.000000 -90.000000 0.000000 0.000000 10.000000 
root 0.000000 0.000000 0.000000 0.000000 0.000000 0.000000 10.000000 
chest 0.000000 0.000000 0.000000 0.000000 0.000000 0.000000 10.000000 
L_mid_tent01 0.000000 0.000000 0.000000 0.000000 0.000000 0.000000 10.000000 
R_mid_tent01 0.000000 0.000000 0.000000 0.000000 0.000000 0.000000 10.000000 
spine01 0.000000 0.000000 0.000000 0.000000 0.000000 0.000000 10.000000 
Bip01_Neck 0.000000 0.000000 0.000000 0.000000 0.000000 0.000000 10.000000 
L_humerus 0.000000 0.000000 0.000000 0.000000 0.000000 0.000000 10.000000 
R_humerus 0.000000 0.000000 0.000000 0.000000 0.000000 0.000000 10.000000 
weapon_bone 0.000000 0.000000 0.000000 0.000000 0.000000 0.000000 10.000000 
Bip01_Head 0.000000 0.000000 0.000000 0.000000 0.000000 0.000000 10.000000 
eye_left_bone 0.000000 0.000000 0.000000 0.000000 0.000000 0.000000 10.000000 
eye_right_bone 0.000000 0.000000 0.000000 0.000000 0.000000 0.000000 10.000000 
L_forearm 0.000000 0.000000 0.000000 0.000000 0.000000 0.000000 10.000000 
L_front_hand 0.000000 0.000000 0.000000 0.000000 0.000000 0.000000 10.000000 
L_weapon_bone 0.000000 0.000000 0.000000 0.000000 0.000000 0.000000 10.000000 
L_front_hand01_01 0.000000 0.000000 0.000000 0.000000 0.000000 0.000000 10.000000 
L_front_hand02_01 0.000000 0.000000 0.000000 0.000000 0.000000 0.000000 10.000000 
L_front_hand03_01 0.000000 0.000000 0.000000 0.000000 0.000000 0.000000 10.000000 
L_front_hand01_02 0.000000 0.000000 0.000000 0.000000 0.000000 0.000000 10.000000 
L_front_hand02_02 0.000000 0.000000 0.000000 0.000000 0.000000 0.000000 10.000000 
L_front_hand03_02 0.000000 0.000000 0.000000 0.000000 0.000000 0.000000 10.000000 
R_forearm 0.000000 0.000000 0.000000 0.000000 0.000000 0.000000 10.000000 
R_front_hand 0.000000 0.000000 0.000000 0.000000 0.000000 0.000000 10.000000 
R_weapon_bone 0.000000 0.000000 0.000000 0.000000 0.000000 0.000000 10.000000 
R_front_hand01_01 0.000000 0.000000 0.000000 0.000000 0.000000 0.000000 10.000000 
R_front_hand02_01 0.000000 0.000000 0.000000 0.000000 0.000000 0.000000 10.000000 
R_front_hand03_01 0.000000 0.000000 0.000000 0.000000 0.000000 0.000000 10.000000 
R_front_hand01_02 0.000000 0.000000 0.000000 0.000000 0.000000 0.000000 10.000000 
R_front_hand02_02 0.000000 0.000000 0.000000 0.000000 0.000000 0.000000 10.000000 
R_front_hand03_02 0.000000 0.000000 0.000000 0.000000 0.000000 0.000000 10.000000 
null_rope01_connect 0.000000 0.000000 0.000000 0.000000 0.000000 0.000000 10.000000 
Rope1_Seg01 0.000000 0.000000 0.000000 0.000000 0.000000 0.000000 10.000000 
Rope1_Seg02 0.000000 0.000000 0.000000 0.000000 0.000000 0.000000 10.000000 
Rope1_Seg03 0.000000 0.000000 0.000000 0.000000 0.000000 0.000000 10.000000 
Rope1_Seg04 0.000000 0.000000 0.000000 0.000000 0.000000 0.000000 10.000000 
Rope1_Seg05 0.000000 0.000000 0.000000 0.000000 0.000000 0.000000 10.000000 
Rope1_Seg06 0.000000 0.000000 0.000000 0.000000 0.000000 0.000000 10.000000 
Rope1_Seg07 0.000000 0.000000 0.000000 0.000000 0.000000 0.000000 10.000000 
Rope1_Seg09 0.000000 0.000000 0.000000 0.000000 0.000000 0.000000 10.000000 
L_mid_hand01 0.000000 0.000000 0.000000 0.000000 0.000000 0.000000 10.000000 
L_mid_hand02 0.000000 0.000000 0.000000 0.000000 0.000000 0.000000 10.000000 
L_mid_hand03 0.000000 0.000000 0.000000 0.000000 0.000000 0.000000 10.000000 
null_rope02_connect 0.000000 0.000000 0.000000 0.000000 0.000000 0.000000 10.000000 
Rope2_Seg01 0.000000 0.000000 0.000000 0.000000 0.000000 0.000000 10.000000 
Rope2_Seg02 0.000000 0.000000 0.000000 0.000000 0.000000 0.000000 10.000000 
Rope2_Seg03 0.000000 0.000000 0.000000 0.000000 0.000000 0.000000 10.000000 
Rope2_Seg04 0.000000 0.000000 0.000000 0.000000 0.000000 0.000000 10.000000 
Rope2_Seg05 0.000000 0.000000 0.000000 0.000000 0.000000 0.000000 10.000000 
Rope2_Seg06 0.000000 0.000000 0.000000 0.000000 0.000000 0.000000 10.000000 
Rope2_Seg07 0.000000 0.000000 0.000000 0.000000 0.000000 0.000000 10.000000 
Rope2_Seg09 0.000000 0.000000 0.000000 0.000000 0.000000 0.000000 10.000000 
R_mid_hand01 0.000000 0.000000 0.000000 0.000000 0.000000 0.000000 10.000000 
R_mid_hand02 0.000000 0.000000 0.000000 0.000000 0.000000 0.000000 10.000000 
R_mid_hand03 0.000000 0.000000 0.000000 0.000000 0.000000 0.000000 10.000000 
spine02 0.000000 0.000000 0.000000 0.000000 0.000000 0.000000 10.000000 
spine03 0.000000 0.000000 0.000000 0.000000 0.000000 0.000000 10.000000 
pelvis 0.000000 0.000000 0.000000 0.000000 0.000000 0.000000 10.000000 
null_rope03_connect 0.000000 0.000000 0.000000 0.000000 0.000000 0.000000 10.000000 
null_rope04_connect 0.000000 0.000000 0.000000 0.000000 0.000000 0.000000 10.000000 
Rope3_Seg01 0.000000 0.000000 0.000000 0.000000 0.000000 0.000000 10.000000 
Rope3_Seg02 0.000000 0.000000 0.000000 0.000000 0.000000 0.000000 10.000000 
Rope3_Seg03 0.000000 0.000000 0.000000 0.000000 0.000000 0.000000 10.000000 
Rope3_Seg04 0.000000 0.000000 0.000000 0.000000 0.000000 0.000000 10.000000 
Rope3_Seg05 0.000000 0.000000 0.000000 0.000000 0.000000 0.000000 10.000000 
Rope3_Seg06 0.000000 0.000000 0.000000 0.000000 0.000000 0.000000 10.000000 
Rope3_Seg07 0.000000 0.000000 0.000000 0.000000 0.000000 0.000000 10.000000 
Rope3_Seg08 0.000000 0.000000 0.000000 0.000000 0.000000 0.000000 10.000000 
Rope3_Seg09 0.000000 0.000000 0.000000 0.000000 0.000000 0.000000 10.000000 
R_rear_hand01 0.000000 0.000000 0.000000 0.000000 0.000000 0.000000 10.000000 
R_rear_hand02 0.000000 0.000000 0.000000 0.000000 0.000000 0.000000 10.000000 
R_rear_hand03 0.000000 0.000000 0.000000 0.000000 0.000000 0.000000 10.000000 
Rope4_Seg01 0.000000 0.000000 0.000000 0.000000 0.000000 0.000000 10.000000 
Rope4_Seg02 0.000000 0.000000 0.000000 0.000000 0.000000 0.000000 10.000000 
Rope4_Seg03 0.000000 0.000000 0.000000 0.000000 0.000000 0.000000 10.000000 
Rope4_Seg04 0.000000 0.000000 0.000000 0.000000 0.000000 0.000000 10.000000 
Rope4_Seg05 0.000000 0.000000 0.000000 0.000000 0.000000 0.000000 10.000000 
Rope4_Seg06 0.000000 0.000000 0.000000 0.000000 0.000000 0.000000 10.000000 
Rope4_Seg07 0.000000 0.000000 0.000000 0.000000 0.000000 0.000000 10.000000 
Rope4_Seg08 0.000000 0.000000 0.000000 0.000000 0.000000 0.000000 10.000000 
Rope4_Seg09 0.000000 0.000000 0.000000 0.000000 0.000000 0.000000 10.000000 
L_rear_hand01 0.000000 0.000000 0.000000 0.000000 0.000000 0.000000 10.000000 
L_rear_hand02 0.000000 0.000000 0.000000 0.000000 0.000000 0.000000 10.000000 
L_rear_hand03 0.000000 0.000000 0.000000 0.000000 0.000000 0.000000 10.000000 
#Beginning of Data. Separated by tabs
#Fr	Tx	Ty	Tz	Rx	Ry	Rz	SF
[MASTER]
21 -3664.308350 5152.649414 1897.373535 0.001660 0.001660 0.001660 6601.286133
22 -3857.773926 5399.374512 1788.099487 0.001660 0.001660 0.001660 6872.624023
[root]
21 -35.659180 -56.917725 1502.538696 -74.712967 -23.425468 -97.344521 1504.039063
22 -34.132690 -58.255001 1502.471069 -79.516525 -24.334030 -96.016510 1503.987427
[chest]
21 -84.512650 -34.090519 0.000000 12.135982 -14.301997 152.789154 91.129311
22 -84.512650 -34.090519 0.000000 8.762853 -17.544216 154.999374 91.129311
[L_mid_tent01]
21 27.298830 22.179108 -249.919052 2.710237 28.626240 80.177917 252.382004
22 27.298819 22.179098 -249.919067 2.858645 29.715124 80.328850 252.382019
[R_mid_tent01]
21 23.228794 24.509907 226.238495 160.013840 -42.140869 87.271049 228.744751
22 23.228794 24.509907 226.238495 159.122635 -43.099651 88.818161 228.744751
[spine01]
21 -0.361383 -0.195265 0.000000 0.002037 0.001166 30.407234 0.410763
22 -0.361383 -0.195265 0.000000 0.002033 0.001173 30.025759 0.410763
[Bip01_Neck]
21 165.484543 71.581718 0.000119 176.643677 -1.657967 43.431911 180.302734
22 165.484543 71.581718 0.000119 176.643677 -1.657967 43.431911 180.302734
[L_humerus]
21 -13.983130 -135.272980 -120.471481 -6.901824 64.417351 82.966461 181.680161
22 -13.983130 -135.272980 -120.471481 -6.833231 64.660011 83.043900 181.680161
[R_humerus]
21 -13.983309 -135.273102 125.287651 25.844164 -65.242516 69.872437 184.909012
22 -13.983309 -135.273102 125.287651 25.927046 -65.476273 69.786179 184.909012
[weapon_bone]
21 235.964890 -300.705902 0.000000 0.000000 -89.951546 -128.212341 382.234833
22 235.964890 -300.705902 0.000000 0.000000 -89.951546 -128.212341 382.234833
[Bip01_Head]
21 213.416122 185.791931 10.791321 4.440424 -0.598381 -43.901402 283.163452
22 213.381042 185.891724 9.506836 4.439822 -0.385180 -43.900673 283.156464
[eye_left_bone]
21 -24.626970 125.451866 -64.772606 0.000000 -90.000000 -99.840431 143.318359
22 -24.626970 125.451866 -64.772606 0.000000 -90.000000 -99.840431 143.318359
[eye_right_bone]
21 -24.626970 125.451866 64.327362 0.000000 -89.965736 80.156380 143.117676
22 -24.626970 125.451866 64.327362 0.000000 -89.965736 80.156380 143.117676
[L_forearm]
21 322.776093 0.000000 -0.000119 0.000426 -0.002308 -110.933777 322.776093
22 322.776093 0.000000 -0.000119 0.000425 -0.002308 -110.845139 322.776093
[L_front_hand]
21 241.149185 -0.042021 -3.300071 -178.667953 -1.835447 -27.422350 241.171753
22 241.149185 -0.042021 -3.300071 -178.667953 -1.835447 -27.422342 241.171753
[L_weapon_bone]
21 156.183838 0.000000 0.000000 0.000014 0.000007 0.000001 156.183838
22 156.183838 0.000000 0.000000 0.000014 0.000007 0.000001 156.183838
[L_front_hand01_01]
21 86.095154 20.947098 -0.655860 -0.306535 -0.513312 68.646957 88.609184
22 86.095154 20.947098 -0.655860 -0.314053 -0.508434 69.417061 88.609184
[L_front_hand02_01]
21 86.935165 -11.437475 24.513514 145.004028 -56.473930 -50.323566 91.046425
22 86.935165 -11.437475 24.513514 145.968994 -56.908298 -51.478970 91.046425
[L_front_hand03_01]
21 86.637497 -14.123976 -20.424902 -145.151382 54.687630 -52.198425 90.126129
22 86.637497 -14.123976 -20.424902 -146.056091 55.123100 -53.303513 90.126129
[L_front_hand01_02]
21 71.020905 -0.000179 0.000030 0.000317 -0.002326 -105.540344 71.020905
22 71.020905 -0.000179 0.000030 0.000318 -0.002326 -105.579170 71.020905
[L_front_hand02_02]
21 71.020927 -0.000119 0.000060 0.000317 -0.002326 -105.540344 71.020927
22 71.020927 -0.000119 0.000060 0.000318 -0.002326 -105.579170 71.020927
[L_front_hand03_02]
21 71.020905 -0.000060 0.000060 0.000317 -0.002326 -105.540344 71.020905
22 71.020905 -0.000060 0.000060 0.000318 -0.002326 -105.579170 71.020905
[R_forearm]
21 322.776428 -0.000060 0.000030 0.201222 0.067830 -109.581192 322.776428
22 322.776428 -0.000060 0.000030 0.201263 0.067706 -109.510582 322.776428
[R_front_hand]
21 238.847015 -0.006795 2.210259 -2.635298 -10.645461 -26.312506 238.857239
22 238.847015 -0.006795 2.210259 -2.635298 -10.645461 -26.312506 238.857239
[R_weapon_bone]
21 155.664093 0.002503 -0.000030 0.003487 0.001180 -90.988930 155.664078
22 155.664093 0.002503 -0.000030 0.003487 0.001180 -90.988930 155.664078
[R_front_hand01_01]
21 87.624611 14.231146 22.918642 -144.694321 -56.325726 50.060078 91.683487
22 87.624611 14.231146 22.918642 -146.552536 -57.155418 52.280716 91.683487
[R_front_hand02_01]
21 89.356956 14.367283 -19.491137 145.240677 54.711166 52.540710 92.579636
22 89.356956 14.367283 -19.491137 146.998032 55.533031 54.685238 92.579636
[R_front_hand03_01]
21 87.286232 -22.307278 -0.143439 0.105409 -0.441003 -68.629547 90.091743
22 87.286232 -22.307278 -0.143439 0.117983 -0.440813 -70.109169 90.091743
[R_front_hand01_02]
21 71.020905 0.000060 0.000119 0.002323 -0.000334 106.381714 71.020905
22 71.020905 0.000060 0.000119 0.002323 -0.000334 106.381714 71.020905
[R_front_hand02_02]
21 71.020844 -0.000030 -0.000119 0.002323 -0.000334 106.381714 71.020836
22 71.020844 -0.000030 -0.000119 0.002323 -0.000334 106.381714 71.020836
[R_front_hand03_02]
21 71.020905 0.000000 0.000030 0.002323 -0.000334 106.381714 71.020905
22 71.020905 0.000000 0.000030 0.002323 -0.000334 106.381714 71.020905
[null_rope01_connect]
21 328.732483 0.000000 -0.000238 -114.317543 -69.067909 146.686554 328.732483
22 328.732483 0.000000 -0.000238 -123.699524 -65.348740 157.007339 328.732483
[Rope1_Seg01]
21 0.000000 0.000000 0.000000 115.037300 9.057606 -179.446091 0.000000
22 0.000000 0.000000 0.000000 113.481392 5.548385 177.943634 0.000000
[Rope1_Seg02]
21 139.999863 -0.000179 0.000000 5.063782 -9.672459 -2.543612 139.999863
22 139.999863 -0.000179 0.000000 4.209336 -9.613624 -2.269612 139.999863
[Rope1_Seg03]
21 139.999924 0.000060 -0.000060 6.118492 -16.738497 -3.117056 139.999924
22 139.999924 0.000060 -0.000060 5.017671 -16.517242 -3.068269 139.999924
[Rope1_Seg04]
21 139.999924 -0.000060 -0.000119 6.010703 -21.275404 -7.939778 139.999924
22 139.999924 -0.000060 -0.000119 4.705400 -20.458019 -8.045018 139.999924
[Rope1_Seg05]
21 139.999832 0.000119 -0.000060 -2.479305 -25.961081 6.566307 139.999832
22 139.999832 0.000119 -0.000060 -4.981984 -29.954966 8.862925 139.999832
[Rope1_Seg06]
21 139.999954 0.000119 -0.000060 -15.527296 -31.812586 21.483770 139.999954
22 139.999954 0.000119 -0.000060 -17.399525 -30.758213 17.132689 139.999954
[Rope1_Seg07]
21 139.999985 0.000060 0.000000 -15.047137 -14.952017 4.744566 139.999985
22 139.999985 0.000060 0.000000 -13.546936 -12.017176 1.749658 139.999985
[Rope1_Seg09]
21 121.602913 0.000119 -0.000089 -89.793175 -1.359789 0.847147 121.602913
22 121.602913 0.000119 -0.000089 -89.793175 -1.359789 0.847147 121.602913
[L_mid_hand01]
21 103.859421 1.038730 8.195221 130.544403 -67.584549 -38.866970 104.187431
22 103.859421 1.038730 8.195221 130.544373 -67.584534 -38.866943 104.187431
[L_mid_hand02]
21 105.572853 -4.139662 -10.864139 -168.923172 43.409309 -73.498894 106.211075
22 105.572853 -4.139662 -10.864139 -168.923172 43.409309 -73.498886 106.211075
[L_mid_hand03]
21 104.641464 17.579376 -3.913581 -6.012627 17.808174 74.893669 106.179977
22 104.641464 17.579376 -3.913581 -6.012626 17.808172 74.893661 106.179977
[null_rope02_connect]
21 328.732849 0.000179 -0.000119 -134.268539 36.101841 5.601067 328.732849
22 328.732849 0.000179 -0.000119 -132.134644 38.342979 9.647339 328.732849
[Rope2_Seg01]
21 0.000057 0.000076 0.000000 -26.928911 -10.007018 -6.327449 0.000095
22 0.000058 0.000072 0.000000 -29.342968 -4.986847 -8.641389 0.000093
[Rope2_Seg02]
21 139.999741 -0.000060 -0.000119 -3.926708 1.719637 3.749304 139.999756
22 139.999741 -0.000060 -0.000119 -4.818130 0.835930 4.402977 139.999756
[Rope2_Seg03]
21 140.000107 0.000030 0.000000 -7.501616 2.879304 7.662342 140.000107
22 140.000107 0.000030 0.000000 -9.161111 0.997584 9.673368 140.000107
[Rope2_Seg04]
21 139.999802 0.000000 -0.000060 -20.241646 7.059553 29.581474 139.999802
22 139.999802 0.000000 -0.000060 -22.342602 -1.333384 45.242222 139.999802
[Rope2_Seg05]
21 139.999985 -0.000060 0.000119 -15.071197 -6.715965 62.609325 139.999985
22 139.999985 -0.000060 0.000119 -5.996350 -20.263618 53.049641 139.999985
[Rope2_Seg06]
21 139.999893 -0.000030 -0.000119 1.770479 -10.310889 15.860909 139.999893
22 139.999893 -0.000030 -0.000119 4.418952 -10.516674 13.190479 139.999893
[Rope2_Seg07]
21 139.999893 0.000060 -0.000060 3.553905 -9.875759 12.125166 139.999893
22 139.999893 0.000060 -0.000060 9.766105 -7.267863 12.909784 139.999893
[Rope2_Seg09]
21 121.338966 0.000089 -0.000060 33.793236 -1.359788 -0.847141 121.338966
22 121.338966 0.000089 -0.000060 33.793236 -1.359788 -0.847141 121.338966
[R_mid_hand01]
21 104.680779 11.144459 -10.335981 -16.212063 45.237247 70.462852 105.778534
22 104.680779 11.144459 -10.335981 -16.212059 45.237240 70.462852 105.778534
[R_mid_hand02]
21 104.070427 2.443552 8.231699 49.067368 -67.749771 39.286453 104.424065
22 104.070427 2.443552 8.231699 49.067368 -67.749771 39.286453 104.424065
[R_mid_hand03]
21 106.028137 -11.221827 -5.996406 -177.101105 15.551026 -76.585571 106.788818
22 106.028137 -11.221827 -5.996406 -177.101105 15.551024 -76.585571 106.788818
[spine02]
21 129.756927 0.001550 0.000119 0.510413 -4.027509 -15.090856 129.756927
22 129.756927 0.001550 0.000119 0.501516 -4.028656 -14.977408 129.756927
[spine03]
21 78.614296 0.081711 -4.899147 1.988532 3.786154 17.836634 78.766838
22 78.614304 0.081707 -4.899154 1.982446 3.789320 17.757610 78.766853
[pelvis]
21 169.435242 0.051022 0.000000 -0.069668 -0.177997 16.840597 169.435257
22 169.435242 0.051022 0.000000 -0.069455 -0.178080 16.703104 169.435257
[null_rope03_connect]
21 -1.257226 -2.466202 137.391083 -3.434447 -74.699196 67.818382 137.418976
22 -1.257226 -2.466202 137.391083 -7.486060 -79.102287 72.850204 137.418976
[null_rope04_connect]
21 -1.259640 -2.480268 -137.844437 -3.434447 -74.699196 67.818382 137.872513
22 -1.259640 -2.480268 -137.844437 -7.486060 -79.102287 72.850204 137.872513
[Rope3_Seg01]
21 0.000014 -0.000267 -0.000153 -168.820923 -52.920395 -39.564156 0.000308
22 0.000014 -0.000284 -0.000153 -176.648636 -52.684795 -31.581392 0.000323
[Rope3_Seg02]
21 139.999924 -0.000119 0.000060 4.452190 -4.947794 4.576368 139.999924
22 139.999924 -0.000119 0.000060 3.687962 -2.434543 5.047567 139.999924
[Rope3_Seg03]
21 139.999924 -0.000119 0.000119 4.359470 -2.476243 11.108232 139.999924
22 139.999924 -0.000119 0.000119 3.498111 -0.161023 10.019317 139.999924
[Rope3_Seg04]
21 139.999924 0.000119 0.000000 2.843174 -2.462266 10.376197 139.999924
22 139.999924 0.000119 0.000000 2.285594 3.106522 13.938456 139.999924
[Rope3_Seg05]
21 139.999924 -0.000238 0.000060 32.075199 -35.321762 -35.529644 139.999924
22 139.999924 -0.000238 0.000060 19.699440 -30.263639 -31.205475 139.999924
[Rope3_Seg06]
21 139.999893 -0.000119 -0.000060 77.786995 -27.300053 -10.828469 139.999893
22 139.999893 -0.000119 -0.000060 106.130104 -33.405109 -25.338770 139.999893
[Rope3_Seg07]
21 139.999771 0.000060 -0.000119 21.222023 -4.860777 7.770996 139.999771
22 139.999771 0.000060 -0.000119 21.977144 -4.058826 10.052664 139.999771
[Rope3_Seg08]
21 139.999985 -0.000060 0.000000 6.890869 -0.787467 4.211368 139.999985
22 139.999985 -0.000060 0.000000 5.761497 0.015383 4.747754 139.999985
[Rope3_Seg09]
21 90.185997 -0.000179 -0.000060 89.793228 -1.359877 -0.847183 90.185997
22 90.185997 -0.000179 -0.000060 89.793228 -1.359877 -0.847183 90.185997
[R_rear_hand01]
21 103.366196 -6.073594 -10.757982 -177.714203 24.565960 -73.910950 104.101845
22 103.366196 -6.073594 -10.757982 -177.714203 24.565960 -73.910950 104.101845
[R_rear_hand02]
21 100.509819 12.039542 -7.992327 -12.874829 36.868488 72.167213 101.543350
22 100.509819 12.039542 -7.992327 -12.874829 36.868488 72.167213 101.543350
[R_rear_hand03]
21 101.539970 5.215704 5.435467 71.484581 -71.816628 21.513813 101.819031
22 101.539970 5.215704 5.435467 71.484581 -71.816628 21.513813 101.819031
[Rope4_Seg01]
21 0.000000 -0.000629 -0.000153 59.483810 -16.956354 -147.735626 0.000648
22 -0.000000 -0.000659 -0.000153 64.077736 -21.209120 -147.590958 0.000676
[Rope4_Seg02]
21 139.999985 0.000060 0.000119 -7.332638 2.736759 -6.110195 139.999985
22 139.999985 0.000060 0.000119 -4.834241 -0.954192 -5.033732 139.999985
[Rope4_Seg03]
21 139.999924 0.000000 -0.000238 -13.728850 17.109488 -9.658863 139.999924
22 139.999924 0.000000 -0.000238 -11.415231 2.984267 -8.801614 139.999924
[Rope4_Seg04]
21 139.999985 0.000000 0.000119 -56.387356 12.844666 -83.755501 139.999985
22 139.999985 0.000000 0.000119 -77.783554 -7.395557 -77.232521 139.999985
[Rope4_Seg05]
21 139.999802 -0.000060 -0.000119 -6.583144 15.150331 -19.451082 139.999802
22 139.999802 -0.000060 -0.000119 -10.878057 25.820660 -13.573744 139.999802
[Rope4_Seg06]
21 139.999924 0.000000 0.000060 -0.301292 3.304793 -2.609773 139.999924
22 139.999924 0.000000 0.000060 -0.289339 4.021062 -0.958669 139.999924
[Rope4_Seg07]
21 139.999802 0.000000 0.000000 -0.009054 1.737674 -1.358727 139.999802
22 139.999802 0.000000 0.000000 -0.002334 2.098757 -0.488088 139.999802
[Rope4_Seg08]
21 139.999924 0.000000 0.000119 -1.495851 0.745823 -0.586787 139.999924
22 139.999924 0.000000 0.000119 -1.504482 1.116085 -0.260315 139.999924
[Rope4_Seg09]
21 90.185791 0.000060 0.000060 -135.617828 2.228885 0.850567 90.185791
22 90.185791 0.000060 0.000060 -135.617828 2.228885 0.850567 90.185791
[L_rear_hand01]
21 101.696655 -8.392275 -7.654577 -12.874829 -36.868488 107.832764 102.329041
22 101.696655 -8.392275 -7.654577 -12.874827 -36.868492 107.832764 102.329041
[L_rear_hand02]
21 102.726799 -1.568258 5.773216 71.484581 71.816628 158.486160 102.900848
22 102.726799 -1.568258 5.773216 71.484581 71.816628 158.486160 102.900848
[L_rear_hand03]
21 104.552910 9.721220 -10.420293 -177.714203 -24.565960 -106.089035 105.519653
22 104.552910 9.721220 -10.420293 -177.714203 -24.565960 -106.089035 105.519653
